0
SECTION
2
HEADER
9
$INSUNITS
70
4
9
$ACADVER
1
AC1014
9
$HANDSEED
5
FFFF
0
ENDSEC
0
SECTION
2
TABLES
0
TABLE
2
VPORT
5
8
100
AcDbSymbolTable
0
ENDTAB
0
TABLE
2
LTYPE
5
5
100
AcDbSymbolTable
0
LTYPE
5
14
100
AcDbSymbolTableRecord
100
AcDbLinetypeTableRecord
2
BYBLOCK
70
0
0
LTYPE
5
15
100
AcDbSymbolTableRecord
100
AcDbLinetypeTableRecord
2
BYLAYER
70
0
0
ENDTAB
0
TABLE
2
LAYER
5
2
100
AcDbSymbolTable
70
2
0
LAYER
5
50
100
AcDbSymbolTableRecord
100
AcDbLayerTableRecord
2
0
70
0
6
CONTINUOUS
0
ENDTAB
0
TABLE
2
STYLE
5
3
100
AcDbSymbolTable
70
1
0
STYLE
5
11
100
AcDbSymbolTableRecord
100
AcDbTextStyleTableRecord
2
STANDARD
70
0
0
ENDTAB
0
TABLE
2
VIEW
5
6
100
AcDbSymbolTable
70
0
0
ENDTAB
0
TABLE
2
UCS
5
7
100
AcDbSymbolTable
70
0
0
ENDTAB
0
TABLE
2
APPID
5
9
100
AcDbSymbolTable
70
2
0
APPID
5
12
100
AcDbSymbolTableRecord
100
AcDbRegAppTableRecord
2
ACAD
70
0
0
ENDTAB
0
TABLE
2
DIMSTYLE
5
A
100
AcDbSymbolTable
70
1
0
ENDTAB
0
TABLE
2
BLOCK_RECORD
5
1
100
AcDbSymbolTable
70
1
0
BLOCK_RECORD
5
1F
100
AcDbSymbolTableRecord
100
AcDbBlockTableRecord
2
*MODEL_SPACE
0
BLOCK_RECORD
5
1B
100
AcDbSymbolTableRecord
100
AcDbBlockTableRecord
2
*PAPER_SPACE
0
ENDTAB
0
ENDSEC
0
SECTION
2
BLOCKS
0
BLOCK
5
20
100
AcDbEntity
100
AcDbBlockBegin
2
*MODEL_SPACE
0
ENDBLK
5
21
100
AcDbEntity
100
AcDbBlockEnd
0
BLOCK
5
1C
100
AcDbEntity
100
AcDbBlockBegin
2
*PAPER_SPACE
0
ENDBLK
5
1D
100
AcDbEntity
100
AcDbBlockEnd
0
ENDSEC
0
SECTION
2
ENTITIES
0
LWPOLYLINE
5
100
100
AcDbEntity
8
0
100
AcDbPolyline
90
4
70
1
43
0.0
10
21.25
20
-25.499999999999989
10
7.2500000000000009
20
-25.499999999999989
10
7.2500000000000018
20
-11.499999999999989
10
21.25
20
-11.499999999999989
0
LWPOLYLINE
5
101
100
AcDbEntity
8
0
100
AcDbPolyline
90
4
70
1
43
0.0
10
35.75
20
-25.499999999999989
10
35.75
20
-11.499999999999989
10
49.750000000000007
20
-11.499999999999989
10
49.750000000000007
20
-25.499999999999989
0
LWPOLYLINE
5
102
100
AcDbEntity
8
0
100
AcDbPolyline
90
4
70
1
43
0.0
10
68.75
20
-25.499999999999989
10
54.750000000000007
20
-25.499999999999989
10
54.750000000000007
20
-11.499999999999989
10
68.75
20
-11.499999999999989
0
LWPOLYLINE
5
103
100
AcDbEntity
8
0
100
AcDbPolyline
90
4
70
1
43
0.0
10
73.75
20
-11.499999999999989
10
87.75
20
-11.499999999999989
10
87.75
20
-25.499999999999989
10
73.75
20
-25.499999999999989
0
LWPOLYLINE
5
104
100
AcDbEntity
8
0
100
AcDbPolyline
90
4
70
1
43
0.0
10
106.75
20
-25.499999999999989
10
92.75
20
-25.499999999999989
10
92.75
20
-11.499999999999989
10
106.75
20
-11.499999999999989
0
LWPOLYLINE
5
105
100
AcDbEntity
8
0
100
AcDbPolyline
90
4
70
1
43
0.0
10
111.75
20
-11.499999999999989
10
125.75000000000001
20
-11.499999999999989
10
125.75000000000001
20
-25.499999999999989
10
111.75
20
-25.499999999999989
0
LWPOLYLINE
5
106
100
AcDbEntity
8
0
100
AcDbPolyline
90
4
70
1
43
0.0
10
144.75
20
-11.499999999999989
10
144.75
20
-25.499999999999989
10
130.75
20
-25.499999999999989
10
130.75
20
-11.499999999999989
0
LWPOLYLINE
5
107
100
AcDbEntity
8
0
100
AcDbPolyline
90
4
70
1
43
0.0
10
149.75
20
-11.499999999999989
10
163.75
20
-11.499999999999989
10
163.75
20
-25.499999999999989
10
149.75
20
-25.499999999999989
0
LWPOLYLINE
5
108
100
AcDbEntity
8
0
100
AcDbPolyline
90
4
70
1
43
0.0
10
168.75000000000003
20
-25.499999999999989
10
168.75000000000003
20
-11.499999999999989
10
182.75000000000003
20
-11.499999999999989
10
182.75000000000003
20
-25.499999999999989
0
LWPOLYLINE
5
109
100
AcDbEntity
8
0
100
AcDbPolyline
90
4
70
1
43
0.0
10
201.75000000000011
20
-11.499999999999989
10
201.75000000000011
20
-25.499999999999989
10
187.75000000000003
20
-25.499999999999989
10
187.75000000000003
20
-11.499999999999989
0
LWPOLYLINE
5
110
100
AcDbEntity
8
0
100
AcDbPolyline
90
4
70
1
43
0.0
10
220.75000000000003
20
-11.499999999999989
10
220.75000000000003
20
-25.499999999999989
10
206.75000000000011
20
-25.499999999999989
10
206.75000000000011
20
-11.499999999999989
0
LWPOLYLINE
5
111
100
AcDbEntity
8
0
100
AcDbPolyline
90
4
70
1
43
0.0
10
249.25000000000011
20
-25.499999999999989
10
235.25000000000006
20
-25.499999999999989
10
235.25000000000006
20
-11.499999999999989
10
249.25000000000011
20
-11.499999999999989
0
LWPOLYLINE
5
112
100
AcDbEntity
8
0
100
AcDbPolyline
90
4
70
1
43
0.0
10
21.25
20
-53.999999999999993
10
7.2500000000000009
20
-53.999999999999993
10
7.2500000000000018
20
-39.999999999999993
10
21.25
20
-39.999999999999993
0
LWPOLYLINE
5
113
100
AcDbEntity
8
0
100
AcDbPolyline
90
4
70
1
43
0.0
10
40.25
20
-39.999999999999993
10
40.25
20
-53.999999999999993
10
26.25
20
-53.999999999999993
10
26.25
20
-39.999999999999993
0
LWPOLYLINE
5
114
100
AcDbEntity
8
0
100
AcDbPolyline
90
4
70
1
43
0.0
10
59.250000000000007
20
-53.999999999999993
10
45.249999999999993
20
-53.999999999999993
10
45.249999999999993
20
-39.999999999999993
10
59.250000000000007
20
-39.999999999999993
0
LWPOLYLINE
5
115
100
AcDbEntity
8
0
100
AcDbPolyline
90
4
70
1
43
0.0
10
78.25
20
-39.999999999999993
10
78.25
20
-53.999999999999993
10
64.25
20
-53.999999999999993
10
64.25
20
-39.999999999999993
0
LWPOLYLINE
5
116
100
AcDbEntity
8
0
100
AcDbPolyline
90
4
70
1
43
0.0
10
97.250000000000014
20
-39.999999999999993
10
97.250000000000014
20
-53.999999999999993
10
83.250000000000014
20
-53.999999999999993
10
83.250000000000014
20
-39.999999999999993
0
LWPOLYLINE
5
117
100
AcDbEntity
8
0
100
AcDbPolyline
90
4
70
1
43
0.0
10
116.25
20
-39.999999999999993
10
116.25
20
-53.999999999999993
10
102.25000000000001
20
-53.999999999999993
10
102.25000000000001
20
-39.999999999999993
0
LWPOLYLINE
5
118
100
AcDbEntity
8
0
100
AcDbPolyline
90
4
70
1
43
0.0
10
135.25
20
-53.999999999999993
10
121.25
20
-53.999999999999993
10
121.25
20
-39.999999999999993
10
135.25
20
-39.999999999999993
0
LWPOLYLINE
5
119
100
AcDbEntity
8
0
100
AcDbPolyline
90
4
70
1
43
0.0
10
140.25
20
-39.999999999999993
10
154.25
20
-39.999999999999993
10
154.25
20
-53.999999999999993
10
140.25
20
-53.999999999999993
0
LWPOLYLINE
5
120
100
AcDbEntity
8
0
100
AcDbPolyline
90
4
70
1
43
0.0
10
173.25000000000003
20
-53.999999999999993
10
159.25
20
-53.999999999999993
10
159.25
20
-39.999999999999993
10
173.25000000000003
20
-39.999999999999993
0
LWPOLYLINE
5
121
100
AcDbEntity
8
0
100
AcDbPolyline
90
4
70
1
43
0.0
10
192.25
20
-53.999999999999993
10
178.25000000000003
20
-53.999999999999993
10
178.25000000000003
20
-39.999999999999993
10
192.25
20
-39.999999999999993
0
LWPOLYLINE
5
122
100
AcDbEntity
8
0
100
AcDbPolyline
90
4
70
1
43
0.0
10
197.25
20
-53.999999999999993
10
197.25
20
-39.999999999999993
10
211.25000000000003
20
-39.999999999999993
10
211.25000000000003
20
-53.999999999999993
0
LWPOLYLINE
5
123
100
AcDbEntity
8
0
100
AcDbPolyline
90
4
70
1
43
0.0
10
230.25000000000006
20
-39.999999999999993
10
230.25000000000006
20
-53.999999999999993
10
216.25000000000003
20
-53.999999999999993
10
216.25000000000003
20
-39.999999999999993
0
LWPOLYLINE
5
124
100
AcDbEntity
8
0
100
AcDbPolyline
90
4
70
1
43
0.0
10
249.25000000000011
20
-39.999999999999993
10
249.25000000000011
20
-53.999999999999993
10
235.25000000000006
20
-53.999999999999993
10
235.25000000000006
20
-39.999999999999993
0
LWPOLYLINE
5
125
100
AcDbEntity
8
0
100
AcDbPolyline
90
4
70
1
43
0.0
10
23.625000000000004
20
-72.999999999999986
10
9.625
20
-72.999999999999986
10
9.625
20
-58.999999999999993
10
23.625000000000004
20
-58.999999999999993
0
LWPOLYLINE
5
126
100
AcDbEntity
8
0
100
AcDbPolyline
90
4
70
1
43
0.0
10
45
20
-72.999999999999986
10
31
20
-72.999999999999986
10
31
20
-58.999999999999993
10
45
20
-58.999999999999993
0
LWPOLYLINE
5
127
100
AcDbEntity
8
0
100
AcDbPolyline
90
4
70
1
43
0.0
10
50
20
-72.999999999999986
10
50
20
-58.999999999999993
10
64
20
-58.999999999999993
10
64
20
-72.999999999999986
0
LWPOLYLINE
5
128
100
AcDbEntity
8
0
100
AcDbPolyline
90
4
70
1
43
0.0
10
83
20
-58.999999999999993
10
83
20
-72.999999999999986
10
69
20
-72.999999999999986
10
69
20
-58.999999999999993
0
LWPOLYLINE
5
129
100
AcDbEntity
8
0
100
AcDbPolyline
90
4
70
1
43
0.0
10
88
20
-58.999999999999993
10
102.00000000000001
20
-58.999999999999993
10
102.00000000000001
20
-72.999999999999986
10
88
20
-72.999999999999986
0
LWPOLYLINE
5
130
100
AcDbEntity
8
0
100
AcDbPolyline
90
4
70
1
43
0.0
10
107.00000000000001
20
-58.999999999999993
10
121.00000000000001
20
-58.999999999999993
10
121.00000000000001
20
-72.999999999999986
10
107.00000000000001
20
-72.999999999999986
0
LWPOLYLINE
5
131
100
AcDbEntity
8
0
100
AcDbPolyline
90
4
70
1
43
0.0
10
140
20
-72.999999999999986
10
126.00000000000001
20
-72.999999999999986
10
126.00000000000001
20
-58.999999999999993
10
140
20
-58.999999999999993
0
LWPOLYLINE
5
132
100
AcDbEntity
8
0
100
AcDbPolyline
90
4
70
1
43
0.0
10
159
20
-58.999999999999993
10
159
20
-72.999999999999986
10
145
20
-72.999999999999986
10
145
20
-58.999999999999993
0
LWPOLYLINE
5
133
100
AcDbEntity
8
0
100
AcDbPolyline
90
4
70
1
43
0.0
10
178
20
-58.999999999999993
10
178
20
-72.999999999999986
10
164.00000000000003
20
-72.999999999999986
10
164.00000000000003
20
-58.999999999999993
0
LWPOLYLINE
5
134
100
AcDbEntity
8
0
100
AcDbPolyline
90
4
70
1
43
0.0
10
183
20
-72.999999999999986
10
183
20
-58.999999999999993
10
197.00000000000003
20
-58.999999999999993
10
197.00000000000003
20
-72.999999999999986
0
LWPOLYLINE
5
135
100
AcDbEntity
8
0
100
AcDbPolyline
90
4
70
1
43
0.0
10
216
20
-58.999999999999993
10
216
20
-72.999999999999986
10
202.00000000000003
20
-72.999999999999986
10
202.00000000000003
20
-58.999999999999993
0
LWPOLYLINE
5
136
100
AcDbEntity
8
0
100
AcDbPolyline
90
4
70
1
43
0.0
10
242.12500000000006
20
-58.999999999999993
10
242.12500000000006
20
-72.999999999999986
10
228.12500000000003
20
-72.999999999999986
10
228.12500000000003
20
-58.999999999999993
0
LWPOLYLINE
5
137
100
AcDbEntity
8
0
100
AcDbPolyline
90
4
70
1
43
0.0
10
14.375
20
-92
10
14.375
20
-77.999999999999986
10
28.375000000000004
20
-77.999999999999986
10
28.375000000000004
20
-92
0
LWPOLYLINE
5
138
100
AcDbEntity
8
0
100
AcDbPolyline
90
4
70
1
43
0.0
10
54.5
20
-77.999999999999986
10
54.5
20
-92
10
40.5
20
-92
10
40.5
20
-77.999999999999986
0
LWPOLYLINE
5
139
100
AcDbEntity
8
0
100
AcDbPolyline
90
4
70
1
43
0.0
10
73.5
20
-77.999999999999986
10
73.5
20
-92
10
59.5
20
-92
10
59.5
20
-77.999999999999986
0
LWPOLYLINE
5
140
100
AcDbEntity
8
0
100
AcDbPolyline
90
4
70
1
43
0.0
10
78.5
20
-92
10
78.5
20
-77.999999999999986
10
92.5
20
-77.999999999999986
10
92.5
20
-92
0
LWPOLYLINE
5
141
100
AcDbEntity
8
0
100
AcDbPolyline
90
4
70
1
43
0.0
10
97.5
20
-92
10
97.5
20
-77.999999999999986
10
111.5
20
-77.999999999999986
10
111.5
20
-92
0
LWPOLYLINE
5
142
100
AcDbEntity
8
0
100
AcDbPolyline
90
4
70
1
43
0.0
10
130.5
20
-77.999999999999986
10
130.5
20
-92
10
116.5
20
-92
10
116.5
20
-77.999999999999986
0
LWPOLYLINE
5
143
100
AcDbEntity
8
0
100
AcDbPolyline
90
4
70
1
43
0.0
10
135.5
20
-92
10
135.5
20
-77.999999999999986
10
149.5
20
-77.999999999999986
10
149.5
20
-92
0
LWPOLYLINE
5
144
100
AcDbEntity
8
0
100
AcDbPolyline
90
4
70
1
43
0.0
10
168.5
20
-77.999999999999986
10
168.5
20
-92
10
154.5
20
-92
10
154.5
20
-77.999999999999986
0
LWPOLYLINE
5
145
100
AcDbEntity
8
0
100
AcDbPolyline
90
4
70
1
43
0.0
10
173.5
20
-92
10
173.5
20
-77.999999999999986
10
187.50000000000003
20
-77.999999999999986
10
187.50000000000003
20
-92
0
LWPOLYLINE
5
146
100
AcDbEntity
8
0
100
AcDbPolyline
90
4
70
1
43
0.0
10
206.50000000000006
20
-77.999999999999986
10
206.50000000000006
20
-92
10
192.50000000000003
20
-92
10
192.50000000000003
20
-77.999999999999986
0
LWPOLYLINE
5
147
100
AcDbEntity
8
0
100
AcDbPolyline
90
4
70
1
43
0.0
10
225.50000000000011
20
-92
10
211.50000000000006
20
-92
10
211.50000000000006
20
-77.999999999999986
10
225.50000000000011
20
-77.999999999999986
0
LWPOLYLINE
5
148
100
AcDbEntity
8
0
100
AcDbPolyline
90
4
70
1
43
0.0
10
232.875
20
-92
10
232.875
20
-77.999999999999986
10
246.87500000000003
20
-77.999999999999986
10
246.87500000000003
20
-92
0
LWPOLYLINE
5
149
100
AcDbEntity
8
0
100
AcDbPolyline
90
4
70
1
43
0.0
10
26
20
-111
10
12.000000000000002
20
-111
10
12.000000000000002
20
-97
10
26
20
-97
0
LWPOLYLINE
5
150
100
AcDbEntity
8
0
100
AcDbPolyline
90
4
70
1
43
0.0
10
35.75
20
-111
10
35.75
20
-97
10
49.750000000000007
20
-97
10
49.750000000000007
20
-111
0
LWPOLYLINE
5
151
100
AcDbEntity
8
0
100
AcDbPolyline
90
4
70
1
43
0.0
10
59.5
20
-97
10
73.5
20
-97
10
73.5
20
-111
10
59.5
20
-111
0
LWPOLYLINE
5
152
100
AcDbEntity
8
0
100
AcDbPolyline
90
4
70
1
43
0.0
10
183
20
-111
10
183
20
-97
10
197.00000000000003
20
-97
10
197.00000000000003
20
-111
0
LWPOLYLINE
5
153
100
AcDbEntity
8
0
100
AcDbPolyline
90
4
70
1
43
0.0
10
206.75000000000011
20
-111
10
206.75000000000011
20
-97
10
220.75000000000003
20
-97
10
220.75000000000003
20
-111
0
LWPOLYLINE
5
154
100
AcDbEntity
8
0
100
AcDbPolyline
90
4
70
1
43
0.0
10
230.50000000000011
20
-111
10
230.50000000000011
20
-97
10
244.50000000000003
20
-97
10
244.50000000000003
20
-111
0
LWPOLYLINE
5
155
100
AcDbEntity
8
0
100
AcDbPolyline
90
4
70
1
43
0.0
10
95.125000000000014
20
-97
10
109.12500000000001
20
-97
10
109.12500000000001
20
-111
10
95.125000000000014
20
-111
0
LWPOLYLINE
5
156
100
AcDbEntity
8
0
100
AcDbPolyline
90
4
70
1
43
0.0
10
24.250000000000007
20
-28.499999999999996
10
4.2500000000000018
20
-28.499999999999996
10
4.25
20
-8.4999999999999876
10
24.250000000000007
20
-8.4999999999999929
0
LWPOLYLINE
5
157
100
AcDbEntity
8
0
100
AcDbPolyline
90
8
70
1
43
0.0
10
223.75000000000003
20
-8.4999999999999893
10
32.750000000000021
20
-8.4999999999999876
10
32.750000000000007
20
-28.499999999999996
10
32.750000000000021
20
-8.4999999999999893
10
24.250000000000007
20
-8.4999999999999929
10
24.250000000000007
20
-28.499999999999996
10
32.750000000000007
20
-28.499999999999996
10
223.75
20
-28.499999999999993
0
LWPOLYLINE
5
158
100
AcDbEntity
8
0
100
AcDbPolyline
90
4
70
1
43
0.0
10
232.25
20
-28.499999999999996
10
252.25000000000009
20
-28.499999999999996
10
252.25000000000009
20
-8.4999999999999876
10
232.25
20
-8.4999999999999929
0
LWPOLYLINE
5
159
100
AcDbEntity
8
0
100
AcDbPolyline
90
4
70
1
43
0.0
10
4.25
20
-36.999999999999993
10
252.25000000000009
20
-36.999999999999993
10
252.25000000000009
20
-114
10
4.25
20
-114
0
LWPOLYLINE
5
160
100
AcDbEntity
8
0
100
AcDbPolyline
90
4
70
1
43
0.0
10
256.50000000000006
20
-122.5
10
-5.173736682737835e-16
20
-122.5
10
0
20
0
10
256.50000000000006
20
-1.6653345369377348e-15
0
LINE
5
161
100
AcDbEntity
8
0
100
AcDbLine
10
256.50000000000006
20
-32.749999999999993
30
0
11
-5.173736682737835e-16
21
-32.749999999999993
31
0
0
LWPOLYLINE
5
162
100
AcDbEntity
8
0
100
AcDbPolyline
90
4
70
1
43
0.0
10
232.25
20
-8.4999999999999929
10
223.75000000000003
20
-8.4999999999999893
10
223.75
20
-28.499999999999993
10
232.25
20
-28.499999999999996
0
LWPOLYLINE
5
163
100
AcDbEntity
8
0
100
AcDbPolyline
90
4
70
1
43
0.0
10
93.725000000000009
20
-110.5
10
86.625000000000014
20
-110.5
10
86.625000000000014
20
-97.000000000000014
10
93.725000000000009
20
-97.000000000000014
0
LWPOLYLINE
5
164
100
AcDbEntity
8
0
100
AcDbPolyline
90
4
70
1
43
0.0
10
110.52500000000002
20
-110.49999999999999
10
117.62500000000001
20
-110.49999999999999
10
117.62500000000001
20
-97
10
110.52500000000002
20
-97
0
LWPOLYLINE
5
165
100
AcDbEntity
8
0
100
AcDbPolyline
90
4
70
1
43
0.0
10
156.625
20
-111
10
142.625
20
-111
10
142.625
20
-97
10
156.625
20
-97
0
LWPOLYLINE
5
166
100
AcDbEntity
8
0
100
AcDbPolyline
90
4
70
1
43
0.0
10
165.12500000000003
20
-97
10
158.02500000000003
20
-97
10
158.02500000000003
20
-110.49999999999999
10
165.12500000000003
20
-110.49999999999999
0
LWPOLYLINE
5
167
100
AcDbEntity
8
0
100
AcDbPolyline
90
4
70
1
43
0.0
10
141.22499999999999
20
-97.000000000000014
10
141.22499999999999
20
-110.5
10
134.125
20
-110.5
10
134.125
20
-97.000000000000014
0
ENDSEC
0
SECTION
2
OBJECTS
0
DICTIONARY
5
C
100
AcDbDictionary
3
ACAD_GROUP
350
D
3
ACAD_MLINESTYLE
350
17
0
DICTIONARY
5
D
100
AcDbDictionary
0
DICTIONARY
5
1A
330
C
100
AcDbDictionary
0
DICTIONARY
5
17
100
AcDbDictionary
0
ENDSEC
0
EOF
