0
SECTION
2
HEADER
9
$INSUNITS
70
4
9
$ACADVER
1
AC1014
9
$HANDSEED
5
FFFF
0
ENDSEC
0
SECTION
2
TABLES
0
TABLE
2
VPORT
5
8
100
AcDbSymbolTable
0
ENDTAB
0
TABLE
2
LTYPE
5
5
100
AcDbSymbolTable
0
LTYPE
5
14
100
AcDbSymbolTableRecord
100
AcDbLinetypeTableRecord
2
BYBLOCK
70
0
0
LTYPE
5
15
100
AcDbSymbolTableRecord
100
AcDbLinetypeTableRecord
2
BYLAYER
70
0
0
ENDTAB
0
TABLE
2
LAYER
5
2
100
AcDbSymbolTable
70
2
0
LAYER
5
50
100
AcDbSymbolTableRecord
100
AcDbLayerTableRecord
2
0
70
0
6
CONTINUOUS
0
ENDTAB
0
TABLE
2
STYLE
5
3
100
AcDbSymbolTable
70
1
0
STYLE
5
11
100
AcDbSymbolTableRecord
100
AcDbTextStyleTableRecord
2
STANDARD
70
0
0
ENDTAB
0
TABLE
2
VIEW
5
6
100
AcDbSymbolTable
70
0
0
ENDTAB
0
TABLE
2
UCS
5
7
100
AcDbSymbolTable
70
0
0
ENDTAB
0
TABLE
2
APPID
5
9
100
AcDbSymbolTable
70
2
0
APPID
5
12
100
AcDbSymbolTableRecord
100
AcDbRegAppTableRecord
2
ACAD
70
0
0
ENDTAB
0
TABLE
2
DIMSTYLE
5
A
100
AcDbSymbolTable
70
1
0
ENDTAB
0
TABLE
2
BLOCK_RECORD
5
1
100
AcDbSymbolTable
70
1
0
BLOCK_RECORD
5
1F
100
AcDbSymbolTableRecord
100
AcDbBlockTableRecord
2
*MODEL_SPACE
0
BLOCK_RECORD
5
1B
100
AcDbSymbolTableRecord
100
AcDbBlockTableRecord
2
*PAPER_SPACE
0
ENDTAB
0
ENDSEC
0
SECTION
2
BLOCKS
0
BLOCK
5
20
100
AcDbEntity
100
AcDbBlockBegin
2
*MODEL_SPACE
0
ENDBLK
5
21
100
AcDbEntity
100
AcDbBlockEnd
0
BLOCK
5
1C
100
AcDbEntity
100
AcDbBlockBegin
2
*PAPER_SPACE
0
ENDBLK
5
1D
100
AcDbEntity
100
AcDbBlockEnd
0
ENDSEC
0
SECTION
2
ENTITIES
0
LWPOLYLINE
5
100
100
AcDbEntity
8
0
100
AcDbPolyline
90
4
70
1
43
0.0
10
7.2500000000000009
20
-7.2500000000000009
10
21.25
20
-7.2500000000000009
10
21.25
20
-21.25
10
7.2500000000000009
20
-21.25
0
LWPOLYLINE
5
101
100
AcDbEntity
8
0
100
AcDbPolyline
90
4
70
1
43
0.0
10
35.75
20
-7.2500000000000009
10
49.75
20
-7.2500000000000009
10
49.75
20
-21.25
10
35.75
20
-21.25
0
LWPOLYLINE
5
102
100
AcDbEntity
8
0
100
AcDbPolyline
90
4
70
1
43
0.0
10
54.75
20
-7.2500000000000009
10
68.75
20
-7.2500000000000009
10
68.75
20
-21.25
10
54.75
20
-21.25
0
LWPOLYLINE
5
103
100
AcDbEntity
8
0
100
AcDbPolyline
90
4
70
1
43
0.0
10
73.75
20
-7.2500000000000009
10
87.75
20
-7.2500000000000009
10
87.75
20
-21.25
10
73.75
20
-21.25
0
LWPOLYLINE
5
104
100
AcDbEntity
8
0
100
AcDbPolyline
90
4
70
1
43
0.0
10
92.75
20
-7.2500000000000009
10
106.75
20
-7.2500000000000009
10
106.75
20
-21.25
10
92.75
20
-21.25
0
LWPOLYLINE
5
105
100
AcDbEntity
8
0
100
AcDbPolyline
90
4
70
1
43
0.0
10
111.75
20
-7.2500000000000009
10
125.75000000000001
20
-7.2500000000000009
10
125.75000000000001
20
-21.25
10
111.75
20
-21.25
0
LWPOLYLINE
5
106
100
AcDbEntity
8
0
100
AcDbPolyline
90
4
70
1
43
0.0
10
130.75
20
-7.2500000000000009
10
144.75
20
-7.2500000000000009
10
144.75
20
-21.25
10
130.75
20
-21.25
0
LWPOLYLINE
5
107
100
AcDbEntity
8
0
100
AcDbPolyline
90
4
70
1
43
0.0
10
149.75
20
-7.2500000000000009
10
163.75
20
-7.2500000000000009
10
163.75
20
-21.25
10
149.75
20
-21.25
0
LWPOLYLINE
5
108
100
AcDbEntity
8
0
100
AcDbPolyline
90
4
70
1
43
0.0
10
168.75000000000003
20
-7.2500000000000009
10
182.75000000000003
20
-7.2500000000000009
10
182.75000000000003
20
-21.25
10
168.75000000000003
20
-21.25
0
LWPOLYLINE
5
109
100
AcDbEntity
8
0
100
AcDbPolyline
90
4
70
1
43
0.0
10
187.75000000000003
20
-7.2500000000000009
10
201.75000000000006
20
-7.2500000000000009
10
201.75000000000006
20
-21.25
10
187.75000000000003
20
-21.25
0
LWPOLYLINE
5
110
100
AcDbEntity
8
0
100
AcDbPolyline
90
4
70
1
43
0.0
10
206.75000000000006
20
-7.2500000000000009
10
220.75000000000003
20
-7.2500000000000009
10
220.75000000000003
20
-21.25
10
206.75000000000006
20
-21.25
0
LWPOLYLINE
5
111
100
AcDbEntity
8
0
100
AcDbPolyline
90
4
70
1
43
0.0
10
235.25000000000003
20
-7.2500000000000009
10
249.25000000000006
20
-7.2500000000000009
10
249.25000000000006
20
-21.25
10
235.25000000000003
20
-21.25
0
LWPOLYLINE
5
112
100
AcDbEntity
8
0
100
AcDbPolyline
90
4
70
1
43
0.0
10
7.2500000000000009
20
-35.75
10
21.25
20
-35.75
10
21.25
20
-49.75
10
7.2500000000000009
20
-49.75
0
LWPOLYLINE
5
113
100
AcDbEntity
8
0
100
AcDbPolyline
90
4
70
1
43
0.0
10
26.25
20
-35.75
10
40.25
20
-35.75
10
40.25
20
-49.75
10
26.25
20
-49.75
0
LWPOLYLINE
5
114
100
AcDbEntity
8
0
100
AcDbPolyline
90
4
70
1
43
0.0
10
45.249999999999993
20
-35.75
10
59.25
20
-35.75
10
59.25
20
-49.75
10
45.249999999999993
20
-49.75
0
LWPOLYLINE
5
115
100
AcDbEntity
8
0
100
AcDbPolyline
90
4
70
1
43
0.0
10
64.25
20
-35.75
10
78.25
20
-35.75
10
78.25
20
-49.75
10
64.25
20
-49.75
0
LWPOLYLINE
5
116
100
AcDbEntity
8
0
100
AcDbPolyline
90
4
70
1
43
0.0
10
83.250000000000014
20
-35.75
10
97.25
20
-35.75
10
97.25
20
-49.75
10
83.250000000000014
20
-49.75
0
LWPOLYLINE
5
117
100
AcDbEntity
8
0
100
AcDbPolyline
90
4
70
1
43
0.0
10
102.25
20
-35.75
10
116.25
20
-35.75
10
116.25
20
-49.75
10
102.25
20
-49.75
0
LWPOLYLINE
5
118
100
AcDbEntity
8
0
100
AcDbPolyline
90
4
70
1
43
0.0
10
121.25
20
-35.75
10
135.25
20
-35.75
10
135.25
20
-49.75
10
121.25
20
-49.75
0
LWPOLYLINE
5
119
100
AcDbEntity
8
0
100
AcDbPolyline
90
4
70
1
43
0.0
10
140.25
20
-35.75
10
154.25
20
-35.75
10
154.25
20
-49.75
10
140.25
20
-49.75
0
LWPOLYLINE
5
120
100
AcDbEntity
8
0
100
AcDbPolyline
90
4
70
1
43
0.0
10
159.25
20
-35.75
10
173.25000000000003
20
-35.75
10
173.25000000000003
20
-49.75
10
159.25
20
-49.75
0
LWPOLYLINE
5
121
100
AcDbEntity
8
0
100
AcDbPolyline
90
4
70
1
43
0.0
10
178.25000000000003
20
-35.75
10
192.25
20
-35.75
10
192.25
20
-49.75
10
178.25000000000003
20
-49.75
0
LWPOLYLINE
5
122
100
AcDbEntity
8
0
100
AcDbPolyline
90
4
70
1
43
0.0
10
197.25
20
-35.75
10
211.25000000000003
20
-35.75
10
211.25000000000003
20
-49.75
10
197.25
20
-49.75
0
LWPOLYLINE
5
123
100
AcDbEntity
8
0
100
AcDbPolyline
90
4
70
1
43
0.0
10
216.25000000000003
20
-35.75
10
230.25000000000003
20
-35.75
10
230.25000000000003
20
-49.75
10
216.25000000000003
20
-49.75
0
LWPOLYLINE
5
124
100
AcDbEntity
8
0
100
AcDbPolyline
90
4
70
1
43
0.0
10
235.25000000000003
20
-35.75
10
249.25000000000006
20
-35.75
10
249.25000000000006
20
-49.75
10
235.25000000000003
20
-49.75
0
LWPOLYLINE
5
125
100
AcDbEntity
8
0
100
AcDbPolyline
90
4
70
1
43
0.0
10
9.6250000000000018
20
-54.75
10
23.625000000000004
20
-54.75
10
23.625000000000004
20
-68.75
10
9.6250000000000018
20
-68.75
0
LWPOLYLINE
5
126
100
AcDbEntity
8
0
100
AcDbPolyline
90
4
70
1
43
0.0
10
31
20
-54.75
10
45
20
-54.75
10
45
20
-68.75
10
31
20
-68.75
0
LWPOLYLINE
5
127
100
AcDbEntity
8
0
100
AcDbPolyline
90
4
70
1
43
0.0
10
50
20
-54.75
10
64
20
-54.75
10
64
20
-68.75
10
50
20
-68.75
0
LWPOLYLINE
5
128
100
AcDbEntity
8
0
100
AcDbPolyline
90
4
70
1
43
0.0
10
69
20
-54.75
10
83
20
-54.75
10
83
20
-68.75
10
69
20
-68.75
0
LWPOLYLINE
5
129
100
AcDbEntity
8
0
100
AcDbPolyline
90
4
70
1
43
0.0
10
88
20
-54.75
10
102.00000000000001
20
-54.75
10
102.00000000000001
20
-68.75
10
88
20
-68.75
0
LWPOLYLINE
5
130
100
AcDbEntity
8
0
100
AcDbPolyline
90
4
70
1
43
0.0
10
107.00000000000001
20
-54.75
10
121
20
-54.75
10
121
20
-68.75
10
107.00000000000001
20
-68.75
0
LWPOLYLINE
5
131
100
AcDbEntity
8
0
100
AcDbPolyline
90
4
70
1
43
0.0
10
126
20
-54.75
10
140
20
-54.75
10
140
20
-68.75
10
126
20
-68.75
0
LWPOLYLINE
5
132
100
AcDbEntity
8
0
100
AcDbPolyline
90
4
70
1
43
0.0
10
145
20
-54.75
10
159
20
-54.75
10
159
20
-68.75
10
145
20
-68.75
0
LWPOLYLINE
5
133
100
AcDbEntity
8
0
100
AcDbPolyline
90
4
70
1
43
0.0
10
164.00000000000003
20
-54.75
10
178
20
-54.75
10
178
20
-68.75
10
164.00000000000003
20
-68.75
0
LWPOLYLINE
5
134
100
AcDbEntity
8
0
100
AcDbPolyline
90
4
70
1
43
0.0
10
183
20
-54.75
10
197.00000000000003
20
-54.75
10
197.00000000000003
20
-68.75
10
183
20
-68.75
0
LWPOLYLINE
5
135
100
AcDbEntity
8
0
100
AcDbPolyline
90
4
70
1
43
0.0
10
202.00000000000003
20
-54.75
10
216
20
-54.75
10
216
20
-68.75
10
202.00000000000003
20
-68.75
0
LWPOLYLINE
5
136
100
AcDbEntity
8
0
100
AcDbPolyline
90
4
70
1
43
0.0
10
228.12500000000003
20
-54.75
10
242.12500000000003
20
-54.75
10
242.12500000000003
20
-68.75
10
228.12500000000003
20
-68.75
0
LWPOLYLINE
5
137
100
AcDbEntity
8
0
100
AcDbPolyline
90
4
70
1
43
0.0
10
14.375
20
-73.75
10
28.375000000000004
20
-73.75
10
28.375000000000004
20
-87.75
10
14.375
20
-87.75
0
LWPOLYLINE
5
138
100
AcDbEntity
8
0
100
AcDbPolyline
90
4
70
1
43
0.0
10
40.5
20
-73.75
10
54.5
20
-73.75
10
54.5
20
-87.75
10
40.5
20
-87.75
0
LWPOLYLINE
5
139
100
AcDbEntity
8
0
100
AcDbPolyline
90
4
70
1
43
0.0
10
59.5
20
-73.75
10
73.5
20
-73.75
10
73.5
20
-87.75
10
59.5
20
-87.75
0
LWPOLYLINE
5
140
100
AcDbEntity
8
0
100
AcDbPolyline
90
4
70
1
43
0.0
10
78.5
20
-73.75
10
92.5
20
-73.75
10
92.5
20
-87.75
10
78.5
20
-87.75
0
LWPOLYLINE
5
141
100
AcDbEntity
8
0
100
AcDbPolyline
90
4
70
1
43
0.0
10
97.5
20
-73.75
10
111.5
20
-73.75
10
111.5
20
-87.75
10
97.5
20
-87.75
0
LWPOLYLINE
5
142
100
AcDbEntity
8
0
100
AcDbPolyline
90
4
70
1
43
0.0
10
116.5
20
-73.75
10
130.5
20
-73.75
10
130.5
20
-87.75
10
116.5
20
-87.75
0
LWPOLYLINE
5
143
100
AcDbEntity
8
0
100
AcDbPolyline
90
4
70
1
43
0.0
10
135.5
20
-73.75
10
149.5
20
-73.75
10
149.5
20
-87.75
10
135.5
20
-87.75
0
LWPOLYLINE
5
144
100
AcDbEntity
8
0
100
AcDbPolyline
90
4
70
1
43
0.0
10
154.5
20
-73.75
10
168.5
20
-73.75
10
168.5
20
-87.75
10
154.5
20
-87.75
0
LWPOLYLINE
5
145
100
AcDbEntity
8
0
100
AcDbPolyline
90
4
70
1
43
0.0
10
173.5
20
-73.75
10
187.50000000000003
20
-73.75
10
187.50000000000003
20
-87.75
10
173.5
20
-87.75
0
LWPOLYLINE
5
146
100
AcDbEntity
8
0
100
AcDbPolyline
90
4
70
1
43
0.0
10
192.50000000000003
20
-73.75
10
206.50000000000003
20
-73.75
10
206.50000000000003
20
-87.75
10
192.50000000000003
20
-87.75
0
LWPOLYLINE
5
147
100
AcDbEntity
8
0
100
AcDbPolyline
90
4
70
1
43
0.0
10
211.50000000000003
20
-73.75
10
225.50000000000006
20
-73.75
10
225.50000000000006
20
-87.75
10
211.50000000000003
20
-87.75
0
LWPOLYLINE
5
148
100
AcDbEntity
8
0
100
AcDbPolyline
90
4
70
1
43
0.0
10
232.875
20
-73.75
10
246.87500000000003
20
-73.75
10
246.87500000000003
20
-87.75
10
232.875
20
-87.75
0
LWPOLYLINE
5
149
100
AcDbEntity
8
0
100
AcDbPolyline
90
4
70
1
43
0.0
10
12.000000000000002
20
-92.75
10
26
20
-92.75
10
26
20
-106.75
10
12.000000000000002
20
-106.75
0
LWPOLYLINE
5
150
100
AcDbEntity
8
0
100
AcDbPolyline
90
4
70
1
43
0.0
10
35.75
20
-92.75
10
49.75
20
-92.75
10
49.75
20
-106.75
10
35.75
20
-106.75
0
LWPOLYLINE
5
151
100
AcDbEntity
8
0
100
AcDbPolyline
90
4
70
1
43
0.0
10
59.5
20
-92.75
10
73.5
20
-92.75
10
73.5
20
-106.75
10
59.5
20
-106.75
0
LWPOLYLINE
5
152
100
AcDbEntity
8
0
100
AcDbPolyline
90
4
70
1
43
0.0
10
183
20
-92.75
10
197.00000000000003
20
-92.75
10
197.00000000000003
20
-106.75
10
183
20
-106.75
0
LWPOLYLINE
5
153
100
AcDbEntity
8
0
100
AcDbPolyline
90
4
70
1
43
0.0
10
206.75000000000006
20
-92.75
10
220.75000000000003
20
-92.75
10
220.75000000000003
20
-106.75
10
206.75000000000006
20
-106.75
0
LWPOLYLINE
5
154
100
AcDbEntity
8
0
100
AcDbPolyline
90
4
70
1
43
0.0
10
230.50000000000006
20
-92.75
10
244.50000000000003
20
-92.75
10
244.50000000000003
20
-106.75
10
230.50000000000006
20
-106.75
0
LWPOLYLINE
5
155
100
AcDbEntity
8
0
100
AcDbPolyline
90
28
70
1
43
0.0
10
90.97499999999998
20
-91.950000000000017
10
90.97499999999998
20
-92.950000000000017
10
93.125
20
-92.950000000000017
10
93.125
20
-97.049999999999997
10
95.125
20
-97.049999999999997
10
95.125
20
-92.75
10
109.125
20
-92.75
10
109.125
20
-97.049999999999997
10
111.12499999999999
20
-97.049999999999997
10
111.12499999999999
20
-92.950000000000017
10
113.27499999999998
20
-92.950000000000017
10
113.27499999999998
20
-91.950000000000017
10
114.97499999999999
20
-91.950000000000017
10
114.97499999999999
20
-92.950000000000017
10
117.12499999999999
20
-92.950000000000017
10
117.12499999999999
20
-105.45000000000002
10
111.12499999999999
20
-105.45000000000002
10
111.12499999999999
20
-99.549999999999997
10
109.125
20
-99.549999999999997
10
109.125
20
-106.75
10
95.125
20
-106.75
10
95.125
20
-99.549999999999997
10
93.125
20
-99.549999999999997
10
93.125
20
-105.45000000000002
10
87.125
20
-105.45000000000002
10
87.125
20
-92.950000000000017
10
89.275000000000006
20
-92.950000000000017
10
89.275000000000006
20
-91.950000000000017
0
LWPOLYLINE
5
156
100
AcDbEntity
8
0
100
AcDbPolyline
90
28
70
1
43
0.0
10
138.47499999999999
20
-92.950000000000017
10
140.625
20
-92.950000000000017
10
140.625
20
-97.049999999999997
10
142.625
20
-97.049999999999997
10
142.625
20
-92.75
10
156.62500000000003
20
-92.75
10
156.62500000000003
20
-97.049999999999997
10
158.625
20
-97.049999999999997
10
158.625
20
-92.950000000000017
10
160.77500000000001
20
-92.950000000000017
10
160.77500000000001
20
-91.950000000000017
10
162.47500000000002
20
-91.950000000000017
10
162.47500000000002
20
-92.950000000000017
10
164.62500000000003
20
-92.950000000000017
10
164.62500000000003
20
-105.45000000000002
10
158.625
20
-105.45000000000002
10
158.625
20
-99.549999999999997
10
156.62500000000003
20
-99.549999999999997
10
156.62500000000003
20
-106.75
10
142.625
20
-106.75
10
142.625
20
-99.549999999999997
10
140.625
20
-99.549999999999997
10
140.625
20
-105.45000000000002
10
134.625
20
-105.45000000000002
10
134.625
20
-92.950000000000017
10
136.77500000000001
20
-92.950000000000017
10
136.77500000000001
20
-91.950000000000017
10
138.47499999999999
20
-91.950000000000017
0
LWPOLYLINE
5
157
100
AcDbEntity
8
0
100
AcDbPolyline
90
4
70
1
43
0.0
10
24.250000000000004
20
-24.250000000000004
10
4.2500000000000018
20
-24.250000000000004
10
4.25
20
-4.25
10
24.250000000000004
20
-4.2500000000000018
0
LWPOLYLINE
5
158
100
AcDbEntity
8
0
100
AcDbPolyline
90
8
70
1
43
0.0
10
223.75000000000003
20
-4.25
10
32.750000000000007
20
-4.25
10
24.250000000000004
20
-4.25
10
24.250000000000004
20
-24.250000000000004
10
32.750000000000007
20
-24.250000000000004
10
32.750000000000007
20
-4.25
10
32.75
20
-24.250000000000004
10
223.75000000000003
20
-24.25
0
LWPOLYLINE
5
159
100
AcDbEntity
8
0
100
AcDbPolyline
90
4
70
1
43
0.0
10
232.25
20
-24.250000000000004
10
252.25000000000006
20
-24.250000000000004
10
252.25000000000006
20
-4.25
10
232.25
20
-4.2500000000000018
0
LWPOLYLINE
5
160
100
AcDbEntity
8
0
100
AcDbPolyline
90
4
70
1
43
0.0
10
4.25
20
-32.75
10
252.25000000000006
20
-32.75
10
252.25000000000006
20
-109.75000000000001
10
4.25
20
-109.75000000000001
0
LWPOLYLINE
5
161
100
AcDbEntity
8
0
100
AcDbPolyline
90
4
70
1
43
0.0
10
256.50000000000006
20
-118.25000000000001
10
-1.4395161476088241e-14
20
-118.25000000000001
10
5.173736682737835e-16
20
4.2499999999999911
10
256.50000000000006
20
4.2499999999999876
0
LINE
5
162
100
AcDbEntity
8
0
100
AcDbLine
10
256.50000000000006
20
-28.5
30
0
11
-3.3306690738754696e-15
21
-28.5
31
0
0
LWPOLYLINE
5
163
100
AcDbEntity
8
0
100
AcDbPolyline
90
4
70
1
43
0.0
10
232.25
20
-4.2500000000000018
10
223.75000000000003
20
-4.2500000000000018
10
223.75000000000003
20
-24.25
10
232.25
20
-24.25
0
ENDSEC
0
SECTION
2
OBJECTS
0
DICTIONARY
5
C
100
AcDbDictionary
3
ACAD_GROUP
350
D
3
ACAD_MLINESTYLE
350
17
0
DICTIONARY
5
D
100
AcDbDictionary
0
DICTIONARY
5
1A
330
C
100
AcDbDictionary
0
DICTIONARY
5
17
100
AcDbDictionary
0
ENDSEC
0
EOF
